<?xml version="1.0" encoding="UTF-8"?>
<svg width="400" height="400" viewBox="0 0 400 400" fill="none" xmlns="http://www.w3.org/2000/svg">
  <!-- Background -->
  <rect width="400" height="400" rx="16" fill="#F9FAFB" />
  
  <!-- Header -->
  <rect width="400" height="60" rx="8" fill="#6366F1" />
  <circle cx="30" cy="30" r="15" fill="white" fillOpacity="0.2" />
  <rect x="60" y="25" width="100" height="10" rx="5" fill="white" fillOpacity="0.6" />
  <rect x="300" y="20" width="70" height="20" rx="10" fill="white" fillOpacity="0.2" />
  
  <!-- Sidebar -->
  <rect y="60" width="80" height="340" fill="#F3F4F6" />
  <rect x="20" y="90" width="40" height="8" rx="4" fill="#6366F1" />
  <rect x="20" y="120" width="40" height="8" rx="4" fill="#9CA3AF" />
  <rect x="20" y="150" width="40" height="8" rx="4" fill="#9CA3AF" />
  <rect x="20" y="180" width="40" height="8" rx="4" fill="#9CA3AF" />
  <rect x="20" y="210" width="40" height="8" rx="4" fill="#9CA3AF" />
  
  <!-- Main Content -->
  <rect x="100" y="80" width="280" height="40" rx="4" fill="#E5E7EB" />
  <rect x="110" y="90" width="180" height="20" rx="4" fill="#4F46E5" fillOpacity="0.2" />
  <rect x="300" y="90" width="70" height="20" rx="10" fill="#4F46E5" />
  
  <!-- Charts -->
  <rect x="100" y="140" width="130" height="100" rx="8" fill="white" />
  <rect x="110" y="150" width="80" height="10" rx="5" fill="#111827" />
  <rect x="110" y="170" width="110" height="60" rx="4" fill="#F3F4F6" />
  <rect x="120" y="210" width="10" height="20" rx="2" fill="#6366F1" />
  <rect x="140" y="190" width="10" height="40" rx="2" fill="#6366F1" />
  <rect x="160" y="180" width="10" height="50" rx="2" fill="#6366F1" />
  <rect x="180" y="200" width="10" height="30" rx="2" fill="#6366F1" />
  <rect x="200" y="170" width="10" height="60" rx="2" fill="#6366F1" />
  
  <rect x="250" y="140" width="130" height="100" rx="8" fill="white" />
  <rect x="260" y="150" width="80" height="10" rx="5" fill="#111827" />
  <circle cx="315" cy="200" r="40" fill="#F3F4F6" />
  <path d="M315 160 A40 40 0 0 1 355 200 L315 200 Z" fill="#6366F1" />
  <path d="M315 160 A40 40 0 0 0 275 200 L315 200 Z" fill="#4F46E5" />
  
  <!-- Stats -->
  <rect x="100" y="260" width="80" height="80" rx="8" fill="white" />
  <rect x="110" y="270" width="60" height="10" rx="5" fill="#111827" />
  <rect x="110" y="290" width="40" height="30" rx="4" fill="#F3F4F6" />
  <text x="130" y="310" font-family="Arial" font-size="14" font-weight="bold" fill="#6366F1">42%</text>
  
  <rect x="200" y="260" width="80" height="80" rx="8" fill="white" />
  <rect x="210" y="270" width="60" height="10" rx="5" fill="#111827" />
  <rect x="210" y="290" width="40" height="30" rx="4" fill="#F3F4F6" />
  <text x="225" y="310" font-family="Arial" font-size="14" font-weight="bold" fill="#6366F1">3.5h</text>
  
  <rect x="300" y="260" width="80" height="80" rx="8" fill="white" />
  <rect x="310" y="270" width="60" height="10" rx="5" fill="#111827" />
  <rect x="310" y="290" width="40" height="30" rx="4" fill="#F3F4F6" />
  <text x="325" y="310" font-family="Arial" font-size="14" font-weight="bold" fill="#6366F1">87%</text>
  
  <!-- Bottom Section -->
  <rect x="100" y="360" width="280" height="20" rx="4" fill="#E5E7EB" />
</svg>
