<?xml version="1.0" encoding="UTF-8"?>
<svg width="500" height="500" viewBox="0 0 500 500" fill="none" xmlns="http://www.w3.org/2000/svg">
  <!-- Journal/Book -->
  <rect x="100" y="80" width="300" height="340" rx="8" fill="#6366F1" />
  <rect x="110" y="90" width="280" height="320" rx="4" fill="#F9FAFB" />
  
  <!-- Binding -->
  <rect x="100" y="80" width="20" height="340" fill="#4F46E5" />
  <rect x="105" y="100" width="10" height="30" rx="5" fill="#F9FAFB" />
  <rect x="105" y="150" width="10" height="30" rx="5" fill="#F9FAFB" />
  <rect x="105" y="200" width="10" height="30" rx="5" fill="#F9FAFB" />
  <rect x="105" y="250" width="10" height="30" rx="5" fill="#F9FAFB" />
  <rect x="105" y="300" width="10" height="30" rx="5" fill="#F9FAFB" />
  <rect x="105" y="350" width="10" height="30" rx="5" fill="#F9FAFB" />
  
  <!-- Journal Content -->
  <rect x="150" y="120" width="200" height="4" rx="2" fill="#6366F1" />
  <rect x="150" y="135" width="180" height="4" rx="2" fill="#6366F1" />
  <rect x="150" y="150" width="190" height="4" rx="2" fill="#6366F1" />
  <rect x="150" y="165" width="160" height="4" rx="2" fill="#6366F1" />
  <rect x="150" y="180" width="200" height="4" rx="2" fill="#6366F1" />
  
  <rect x="150" y="210" width="200" height="4" rx="2" fill="#6366F1" opacity="0.7" />
  <rect x="150" y="225" width="180" height="4" rx="2" fill="#6366F1" opacity="0.7" />
  <rect x="150" y="240" width="190" height="4" rx="2" fill="#6366F1" opacity="0.7" />
  
  <!-- Mood Icons -->
  <circle cx="170" y="280" r="15" fill="#10B981" />
  <path d="M163 280 L170 287 L177 280" stroke="white" stroke-width="2" stroke-linecap="round" />
  
  <!-- AI Element -->
  <rect x="220" y="310" width="140" height="70" rx="8" fill="#F3F4F6" />
  <rect x="230" y="320" width="120" height="4" rx="2" fill="#6366F1" />
  <rect x="230" y="335" width="100" height="4" rx="2" fill="#6366F1" />
  <rect x="230" y="350" width="110" height="4" rx="2" fill="#6366F1" />
  <rect x="230" y="365" width="90" height="4" rx="2" fill="#6366F1" />
  
  <!-- AI Brain Icon -->
  <circle cx="340" y="340" r="15" fill="#4F46E5" opacity="0.2" />
  <path d="M335 335 C335 330 345 330 345 335 C345 340 335 340 335 335" stroke="#4F46E5" stroke-width="1.5" fill="none" />
  <path d="M335 345 C335 340 345 340 345 345 C345 350 335 350 335 345" stroke="#4F46E5" stroke-width="1.5" fill="none" />
  <line x1="340" y1="325" x2="340" y2="355" stroke="#4F46E5" stroke-width="1.5" />
  <line x1="330" y1="340" x2="350" y2="340" stroke="#4F46E5" stroke-width="1.5" />
  
  <!-- Pen -->
  <rect x="320" y="120" width="8" height="60" rx="4" transform="rotate(30 320 120)" fill="#4F46E5" />
  <path d="M315 115 L325 120 L320 130 Z" fill="#6366F1" />
</svg>
